<?xml version="1.0" encoding="utf-8"?>
<!-- Generator: Adobe Illustrator 23.1.0, SVG Export Plug-In . SVG Version: 6.00 Build 0)  -->
<svg version="1.1" id="Layer_1" xmlns="http://www.w3.org/2000/svg" xmlns:xlink="http://www.w3.org/1999/xlink" x="0px" y="0px"
	 viewBox="0 0 1200 1200" enable-background="new 0 0 1200 1200" xml:space="preserve">
<g>
	<g>
		<path fill="#9A5BF1" d="M677.393,532.633c20.484,3.988,47.425-18.684,51.873-37.992c7.071-30.695-13.578-70.722-22.833-99.463
			c-16.049-49.837-21.752-111.743-4.044-161.958c7.003-19.86,15.424-39.089,28.86-55.603c4.604-5.659,9.436-11.303,14.97-16.005
			c20.287-17.235,43.269-36.353,69.92-42.228c-18.833,45.71-32.608,91.452-33.756,141.389
			c0.509,70.849,41.244,124.903,68.834,186.898c28.606,64.279,32.518,143.312-4.749,205.05
			c-9.823,16.274-22.166,30.972-31.27,47.658c-9.104,16.686-14.863,36.36-10.033,54.747c1.686,6.417,4.552,12.057,8.238,16.729
			c12.813,16.242,35.531,20.786,53.02,5.652c30.622-26.502,18.27-73.867,24.384-108.865c-0.336,1.921,26.125,29.175,28.938,33.956
			c8.387,14.253,13.521,29.656,16.396,45.882c5.644,31.866,7.236,69.926-4.498,100.585c-13.168,34.406-31.55,67.07-56.105,94.639
			c-32.58,36.574-72.55,66.538-116.793,87.554c-27.51,13.068-56.659,22.728-83.163,37.732
			c-34.192,19.357-63.353,47.516-83.894,81.01c-17.718-33.703-52.095-55.278-86.83-70.879s-71.702-27.04-103.349-48.213
			c-61.188-40.935-99.074-109.182-124.043-176.452c-18.484-49.8-21.379-100.838-14.521-152.852
			c4.348-32.976,12.126-65.214,22.331-96.878c10.19-31.616,18.443-63.742,24.845-96.341c5.955-30.326,7.566-60.985,6.389-91.777
			c-0.409-10.685-2.327-21.314-3.577-31.966c-0.391-3.326-1.811-6.641,0.409-10.822c4.789,0.663,9.917,1.372,14.141,1.956
			c6.741,3.537,10.408,8.782,13.968,14.011c23.256,34.157,36.988,71.977,41.584,112.893c2.394,21.316,2.383,42.834,1.033,64.318
			c-1.162,18.491-2.829,36.993-1.579,55.552c1.049,15.589,2.357,31.14,8.471,45.819c3.812,9.153,8.867,17.388,16.766,23.577
			c11.064,8.669,20.297,9.126,32.383,1.906c6.369-3.805,11.711-8.773,16.483-14.359c20.732-24.268,31.449-52.505,32.993-84.279
			c1.072-22.071-1.329-43.911-6.022-65.4c-8.645-39.583-17.831-79.048-26.914-118.534c-6.814-29.62-10.469-59.587-9.531-89.98
			c1.19-38.562,11.147-75.179,26.11-110.49C503.544,139.261,565.943,76.99,639.451,50c-3.18,27.155-24.787,47.803-39.291,70.979
			c-27.094,43.293-41.996,96.871-40.759,147.941c1.29,53.239,34.135,96.195,54.884,143.057
			C629.573,446.507,631.55,523.708,677.393,532.633z"/>
		<path fill="#FFFFFF" d="M687.804,807.397c9.028-14.6,19.746-32.129,18.306-49.596c-1.438-17.456-3.057-35.658-14.268-49.992
			c-3.158-4.039-6.939-7.551-10.855-10.862c-15.176-12.829-28.639-16.538-48.084-18.087c-9.723-0.775-19.392-0.24-28.975,1.499
			c-15.368,2.789-34.382,8.441-43.911,21.574c-11.17,15.391-27.185,32.625-30.867,51.918c-3.134,16.421,3.349,35.668,11.079,49.89
			c0.61,1.122,1.241,2.221,1.892,3.298c9.915,16.402,24.639,27.542,42.418,33.371c-1.328,13.68-1.968,27.492-3.013,41.177
			c-0.014,0.181-0.02,0.363-0.034,0.544c-7.679-0.723-15.361-1.419-23.028-2.201c-6.413-0.654-15.233-3.764-18.981,2.957
			c-0.391,0.703-0.725,1.442-1.006,2.21c-2.811,7.681-0.425,18.301,0.295,25.875c1.347,14.16,10.809,11.951,23.389,13.499
			c5.573,0.686,11.153,1.299,16.736,1.904c-0.779,10.443-6.659,35.524-0.214,47.328c1.752,3.209,4.416,5.435,8.342,6.114
			c1.814,0.314,3.672,0.182,5.509,0.049c5.531-0.4,15.887,0.897,20.803-1.491c5.828-2.831,4.823-8.886,5.65-15.775
			c1.293-10.762,2.384-21.547,3.375-32.341c7.967,0.559,15.938,1.059,23.915,1.453c4.622,0.229,9.825,0.219,13.119-3.031
			c2.915-2.877,3.349-7.356,3.612-11.443c0.996-15.452,3.16-24.807-14.283-27.531c-7.681-1.2-15.434-2.108-23.196-2.944
			c0.755-13.999,1.254-28.011,1.5-42.028C651.537,842.217,674.841,828.357,687.804,807.397z M577.835,759.408
			c2.43-15.406,13.638-24.654,27.916-28.736c7.174-2.051,14.364-3.582,21.917-3.15c7.076,0.405,13.19,3.201,18.817,7.135
			c3.99,2.789,6.527,6.848,7.984,11.493c1.048,3.342,1.883,6.751,2.868,10.114c0.605,2.067,0.411,4.04-0.26,6.061
			c-1.368,4.119-2.915,8.158-5.118,11.907c-2.4,4.086-4.846,8.145-7.339,12.174c-0.753,1.219-1.576,2.474-2.63,3.417
			c-16.677,14.898-41.63,13.769-55.161,0.393C579.696,783.165,575.737,772.711,577.835,759.408z"/>
	</g>
</g>
</svg>
